<mxfile host="app.diagrams.net" modified="2020-10-27T06:25:31.868Z" agent="5.0 (Macintosh; Intel Mac OS X 10_15_6) AppleWebKit/605.1.15 (KHTML, like Gecko) Version/14.0 Safari/605.1.15" etag="WXF_K6xzUUqyf-jOZSsc" version="13.8.3" type="github">
  <diagram id="T70CwifL69ZfGFbH6EHj" name="Page-1">
    <mxGraphModel dx="2145" dy="868" grid="1" gridSize="10" guides="1" tooltips="1" connect="1" arrows="1" fold="1" page="1" pageScale="1" pageWidth="850" pageHeight="1100" math="0" shadow="0">
      <root>
        <mxCell id="0" />
        <mxCell id="1" parent="0" />
        <mxCell id="zY0vd3xaoPElQ49HkwTg-1" value="Ubuntu" style="rounded=0;whiteSpace=wrap;html=1;" vertex="1" parent="1">
          <mxGeometry x="-300" y="630" width="590" height="80" as="geometry" />
        </mxCell>
        <mxCell id="zY0vd3xaoPElQ49HkwTg-3" value="s390x" style="rounded=0;whiteSpace=wrap;html=1;" vertex="1" parent="1">
          <mxGeometry x="-300" y="720" width="590" height="30" as="geometry" />
        </mxCell>
        <mxCell id="zY0vd3xaoPElQ49HkwTg-4" value="Docker" style="rounded=0;whiteSpace=wrap;html=1;" vertex="1" parent="1">
          <mxGeometry x="-300" y="590" width="590" height="30" as="geometry" />
        </mxCell>
        <mxCell id="zY0vd3xaoPElQ49HkwTg-33" style="edgeStyle=orthogonalEdgeStyle;rounded=0;orthogonalLoop=1;jettySize=auto;html=1;exitX=0;exitY=0.5;exitDx=0;exitDy=0;fontSize=10;entryX=0;entryY=0.5;entryDx=0;entryDy=0;" edge="1" parent="1" source="zY0vd3xaoPElQ49HkwTg-5" target="zY0vd3xaoPElQ49HkwTg-26">
          <mxGeometry relative="1" as="geometry">
            <mxPoint x="-320" y="160" as="targetPoint" />
            <Array as="points">
              <mxPoint x="-390" y="560" />
              <mxPoint x="-390" y="170" />
            </Array>
          </mxGeometry>
        </mxCell>
        <mxCell id="zY0vd3xaoPElQ49HkwTg-5" value="dummy" style="rounded=0;whiteSpace=wrap;html=1;fontSize=10;" vertex="1" parent="1">
          <mxGeometry x="-300" y="540" width="40" height="40" as="geometry" />
        </mxCell>
        <mxCell id="zY0vd3xaoPElQ49HkwTg-11" value="&lt;font style=&quot;font-size: 10px&quot;&gt;dummy&lt;/font&gt;" style="rounded=0;whiteSpace=wrap;html=1;" vertex="1" parent="1">
          <mxGeometry x="-250" y="540" width="40" height="40" as="geometry" />
        </mxCell>
        <mxCell id="zY0vd3xaoPElQ49HkwTg-12" value="&lt;span style=&quot;color: rgb(0, 0, 0); font-family: helvetica; font-size: 10px; font-style: normal; font-weight: normal; letter-spacing: normal; text-align: center; text-indent: 0px; text-transform: none; word-spacing: 0px; text-decoration: none; display: inline; float: none;&quot;&gt;dummy&lt;/span&gt;" style="rounded=0;whiteSpace=wrap;html=1;labelBackgroundColor=none;" vertex="1" parent="1">
          <mxGeometry x="-200" y="540" width="40" height="40" as="geometry" />
        </mxCell>
        <mxCell id="zY0vd3xaoPElQ49HkwTg-58" style="edgeStyle=orthogonalEdgeStyle;rounded=0;orthogonalLoop=1;jettySize=auto;html=1;fontSize=10;fontColor=none;entryX=1;entryY=0.5;entryDx=0;entryDy=0;" edge="1" parent="1" source="zY0vd3xaoPElQ49HkwTg-13" target="zY0vd3xaoPElQ49HkwTg-32">
          <mxGeometry relative="1" as="geometry">
            <mxPoint x="-130" y="320" as="targetPoint" />
            <Array as="points">
              <mxPoint x="-130" y="320" />
            </Array>
          </mxGeometry>
        </mxCell>
        <mxCell id="zY0vd3xaoPElQ49HkwTg-13" value="&lt;span style=&quot;color: rgb(0, 0, 0); font-family: helvetica; font-size: 10px; font-style: normal; font-weight: normal; letter-spacing: normal; text-align: center; text-indent: 0px; text-transform: none; word-spacing: 0px; text-decoration: none; display: inline; float: none;&quot;&gt;zoo-3&lt;/span&gt;" style="rounded=0;whiteSpace=wrap;html=1;labelBackgroundColor=none;" vertex="1" parent="1">
          <mxGeometry x="-150" y="540" width="40" height="40" as="geometry" />
        </mxCell>
        <mxCell id="zY0vd3xaoPElQ49HkwTg-15" value="&lt;span style=&quot;color: rgb(0, 0, 0); font-family: helvetica; font-size: 10px; font-style: normal; font-weight: normal; letter-spacing: normal; text-align: center; text-indent: 0px; text-transform: none; word-spacing: 0px; text-decoration: none; display: inline; float: none;&quot;&gt;zoo-2&lt;/span&gt;" style="rounded=0;whiteSpace=wrap;html=1;labelBackgroundColor=none;" vertex="1" parent="1">
          <mxGeometry x="-100" y="540" width="40" height="40" as="geometry" />
        </mxCell>
        <mxCell id="zY0vd3xaoPElQ49HkwTg-16" value="zoo-1" style="rounded=0;whiteSpace=wrap;html=1;fontSize=10;labelBackgroundColor=none;" vertex="1" parent="1">
          <mxGeometry x="-50" y="540" width="40" height="40" as="geometry" />
        </mxCell>
        <mxCell id="zY0vd3xaoPElQ49HkwTg-17" value="&lt;font size=&quot;1&quot;&gt;kafka-1&lt;/font&gt;" style="rounded=0;whiteSpace=wrap;html=1;labelBackgroundColor=none;" vertex="1" parent="1">
          <mxGeometry x="1" y="540" width="40" height="40" as="geometry" />
        </mxCell>
        <mxCell id="zY0vd3xaoPElQ49HkwTg-18" value="&lt;font face=&quot;helvetica&quot; size=&quot;1&quot;&gt;kafka-2&lt;/font&gt;" style="rounded=0;whiteSpace=wrap;html=1;labelBackgroundColor=none;" vertex="1" parent="1">
          <mxGeometry x="50" y="540" width="40" height="40" as="geometry" />
        </mxCell>
        <mxCell id="zY0vd3xaoPElQ49HkwTg-19" value="&lt;span style=&quot;color: rgb(0, 0, 0); font-family: helvetica; font-size: 10px; font-style: normal; font-weight: normal; letter-spacing: normal; text-align: center; text-indent: 0px; text-transform: none; word-spacing: 0px; text-decoration: none; display: inline; float: none;&quot;&gt;kafka-3&lt;br&gt;&lt;/span&gt;" style="rounded=0;whiteSpace=wrap;html=1;labelBackgroundColor=none;" vertex="1" parent="1">
          <mxGeometry x="100" y="540" width="40" height="40" as="geometry" />
        </mxCell>
        <mxCell id="zY0vd3xaoPElQ49HkwTg-20" value="&lt;font style=&quot;font-size: 10px&quot;&gt;dumy&lt;/font&gt;" style="rounded=0;whiteSpace=wrap;html=1;labelBackgroundColor=none;" vertex="1" parent="1">
          <mxGeometry x="150" y="540" width="40" height="40" as="geometry" />
        </mxCell>
        <mxCell id="zY0vd3xaoPElQ49HkwTg-23" value="&lt;font style=&quot;font-size: 10px&quot;&gt;dummy&lt;/font&gt;" style="rounded=0;whiteSpace=wrap;html=1;labelBackgroundColor=none;" vertex="1" parent="1">
          <mxGeometry x="200" y="540" width="40" height="40" as="geometry" />
        </mxCell>
        <mxCell id="zY0vd3xaoPElQ49HkwTg-24" value="&lt;font size=&quot;1&quot;&gt;dummy&lt;/font&gt;" style="rounded=0;whiteSpace=wrap;html=1;labelBackgroundColor=none;" vertex="1" parent="1">
          <mxGeometry x="250" y="540" width="40" height="40" as="geometry" />
        </mxCell>
        <mxCell id="zY0vd3xaoPElQ49HkwTg-26" value="zookeeper-1-conf" style="rounded=0;whiteSpace=wrap;html=1;fontSize=10;" vertex="1" parent="1">
          <mxGeometry x="-300" y="160" width="130" height="20" as="geometry" />
        </mxCell>
        <mxCell id="zY0vd3xaoPElQ49HkwTg-28" value="&lt;span style=&quot;color: rgb(0, 0, 0); font-family: helvetica; font-size: 10px; font-style: normal; font-weight: normal; letter-spacing: normal; text-align: center; text-indent: 0px; text-transform: none; word-spacing: 0px; text-decoration: none; display: inline; float: none;&quot;&gt;zookeeper-1-data&lt;/span&gt;" style="rounded=0;whiteSpace=wrap;html=1;fontSize=10;labelBackgroundColor=none;" vertex="1" parent="1">
          <mxGeometry x="-300" y="190" width="130" height="20" as="geometry" />
        </mxCell>
        <mxCell id="zY0vd3xaoPElQ49HkwTg-29" value="&lt;span style=&quot;color: rgb(0, 0, 0); font-family: helvetica; font-size: 10px; font-style: normal; font-weight: normal; letter-spacing: normal; text-align: center; text-indent: 0px; text-transform: none; word-spacing: 0px; text-decoration: none; display: inline; float: none;&quot;&gt;zookeeper-2-conf&lt;/span&gt;" style="rounded=0;whiteSpace=wrap;html=1;fontSize=10;labelBackgroundColor=none;" vertex="1" parent="1">
          <mxGeometry x="-300" y="220" width="130" height="20" as="geometry" />
        </mxCell>
        <mxCell id="zY0vd3xaoPElQ49HkwTg-30" value="&lt;span style=&quot;color: rgb(0, 0, 0); font-family: helvetica; font-size: 10px; font-style: normal; font-weight: normal; letter-spacing: normal; text-align: center; text-indent: 0px; text-transform: none; word-spacing: 0px; text-decoration: none; display: inline; float: none;&quot;&gt;zookeeper-2-data&lt;/span&gt;" style="rounded=0;whiteSpace=wrap;html=1;fontSize=10;labelBackgroundColor=none;" vertex="1" parent="1">
          <mxGeometry x="-300" y="250" width="130" height="20" as="geometry" />
        </mxCell>
        <mxCell id="zY0vd3xaoPElQ49HkwTg-31" value="&lt;span style=&quot;color: rgb(0, 0, 0); font-family: helvetica; font-size: 10px; font-style: normal; font-weight: normal; letter-spacing: normal; text-align: center; text-indent: 0px; text-transform: none; word-spacing: 0px; text-decoration: none; display: inline; float: none;&quot;&gt;zookeeper-3-conf&lt;/span&gt;" style="rounded=0;whiteSpace=wrap;html=1;fontSize=10;labelBackgroundColor=none;" vertex="1" parent="1">
          <mxGeometry x="-300" y="280" width="130" height="20" as="geometry" />
        </mxCell>
        <mxCell id="zY0vd3xaoPElQ49HkwTg-32" value="&lt;span style=&quot;color: rgb(0, 0, 0); font-family: helvetica; font-size: 10px; font-style: normal; font-weight: normal; letter-spacing: normal; text-align: center; text-indent: 0px; text-transform: none; word-spacing: 0px; text-decoration: none; display: inline; float: none;&quot;&gt;zookeeper-3-data&lt;/span&gt;" style="rounded=0;whiteSpace=wrap;html=1;fontSize=10;labelBackgroundColor=none;" vertex="1" parent="1">
          <mxGeometry x="-300" y="310" width="130" height="20" as="geometry" />
        </mxCell>
        <mxCell id="zY0vd3xaoPElQ49HkwTg-51" style="edgeStyle=orthogonalEdgeStyle;rounded=0;orthogonalLoop=1;jettySize=auto;html=1;fontSize=10;entryX=0;entryY=0.5;entryDx=0;entryDy=0;" edge="1" parent="1" target="zY0vd3xaoPElQ49HkwTg-28">
          <mxGeometry relative="1" as="geometry">
            <mxPoint x="-290" y="160" as="targetPoint" />
            <mxPoint x="-300" y="550" as="sourcePoint" />
            <Array as="points">
              <mxPoint x="-380" y="550" />
              <mxPoint x="-380" y="200" />
            </Array>
          </mxGeometry>
        </mxCell>
        <mxCell id="zY0vd3xaoPElQ49HkwTg-52" style="edgeStyle=orthogonalEdgeStyle;rounded=0;orthogonalLoop=1;jettySize=auto;html=1;fontSize=10;entryX=0;entryY=0.5;entryDx=0;entryDy=0;exitX=0.5;exitY=0;exitDx=0;exitDy=0;" edge="1" parent="1" source="zY0vd3xaoPElQ49HkwTg-11" target="zY0vd3xaoPElQ49HkwTg-29">
          <mxGeometry relative="1" as="geometry">
            <mxPoint x="-290" y="180" as="targetPoint" />
            <mxPoint x="-230" y="530" as="sourcePoint" />
            <Array as="points">
              <mxPoint x="-230" y="530" />
              <mxPoint x="-360" y="530" />
              <mxPoint x="-360" y="230" />
            </Array>
          </mxGeometry>
        </mxCell>
        <mxCell id="zY0vd3xaoPElQ49HkwTg-54" style="edgeStyle=orthogonalEdgeStyle;rounded=0;orthogonalLoop=1;jettySize=auto;html=1;fontSize=10;" edge="1" parent="1">
          <mxGeometry relative="1" as="geometry">
            <mxPoint x="-300" y="260" as="targetPoint" />
            <mxPoint x="-227" y="540" as="sourcePoint" />
            <Array as="points">
              <mxPoint x="-220" y="540" />
              <mxPoint x="-220" y="520" />
              <mxPoint x="-350" y="520" />
              <mxPoint x="-350" y="260" />
            </Array>
          </mxGeometry>
        </mxCell>
        <mxCell id="zY0vd3xaoPElQ49HkwTg-55" style="edgeStyle=orthogonalEdgeStyle;rounded=0;orthogonalLoop=1;jettySize=auto;html=1;fontSize=10;" edge="1" parent="1">
          <mxGeometry relative="1" as="geometry">
            <mxPoint x="-300" y="290" as="targetPoint" />
            <mxPoint x="-180" y="540" as="sourcePoint" />
            <Array as="points">
              <mxPoint x="-180" y="500" />
              <mxPoint x="-330" y="500" />
              <mxPoint x="-330" y="290" />
            </Array>
          </mxGeometry>
        </mxCell>
        <mxCell id="zY0vd3xaoPElQ49HkwTg-56" style="edgeStyle=orthogonalEdgeStyle;rounded=0;orthogonalLoop=1;jettySize=auto;html=1;fontSize=10;" edge="1" parent="1">
          <mxGeometry relative="1" as="geometry">
            <mxPoint x="-300" y="320" as="targetPoint" />
            <mxPoint x="-170" y="540" as="sourcePoint" />
            <Array as="points">
              <mxPoint x="-170" y="490" />
              <mxPoint x="-320" y="490" />
              <mxPoint x="-320" y="320" />
            </Array>
          </mxGeometry>
        </mxCell>
        <mxCell id="zY0vd3xaoPElQ49HkwTg-59" style="edgeStyle=orthogonalEdgeStyle;rounded=0;orthogonalLoop=1;jettySize=auto;html=1;fontSize=10;fontColor=none;entryX=1;entryY=0.5;entryDx=0;entryDy=0;" edge="1" parent="1" target="zY0vd3xaoPElQ49HkwTg-30">
          <mxGeometry relative="1" as="geometry">
            <mxPoint x="-80" y="260" as="targetPoint" />
            <mxPoint x="-80.5" y="540" as="sourcePoint" />
            <Array as="points">
              <mxPoint x="-80" y="260" />
            </Array>
          </mxGeometry>
        </mxCell>
        <mxCell id="zY0vd3xaoPElQ49HkwTg-60" style="edgeStyle=orthogonalEdgeStyle;rounded=0;orthogonalLoop=1;jettySize=auto;html=1;fontSize=10;fontColor=none;entryX=1;entryY=0.5;entryDx=0;entryDy=0;" edge="1" parent="1" target="zY0vd3xaoPElQ49HkwTg-31">
          <mxGeometry relative="1" as="geometry">
            <mxPoint x="-120" y="290" as="targetPoint" />
            <mxPoint x="-120" y="540" as="sourcePoint" />
            <Array as="points">
              <mxPoint x="-120" y="290" />
            </Array>
          </mxGeometry>
        </mxCell>
        <mxCell id="zY0vd3xaoPElQ49HkwTg-61" style="edgeStyle=orthogonalEdgeStyle;rounded=0;orthogonalLoop=1;jettySize=auto;html=1;fontSize=10;fontColor=none;" edge="1" parent="1">
          <mxGeometry relative="1" as="geometry">
            <mxPoint x="-170" y="170" as="targetPoint" />
            <mxPoint x="-20" y="540" as="sourcePoint" />
            <Array as="points">
              <mxPoint x="-20" y="170" />
              <mxPoint x="-170" y="170" />
            </Array>
          </mxGeometry>
        </mxCell>
        <mxCell id="zY0vd3xaoPElQ49HkwTg-62" style="edgeStyle=orthogonalEdgeStyle;rounded=0;orthogonalLoop=1;jettySize=auto;html=1;fontSize=10;fontColor=none;entryX=1;entryY=0.25;entryDx=0;entryDy=0;" edge="1" parent="1" target="zY0vd3xaoPElQ49HkwTg-28">
          <mxGeometry relative="1" as="geometry">
            <mxPoint x="-30" y="190" as="targetPoint" />
            <mxPoint x="-30.5" y="540" as="sourcePoint" />
            <Array as="points">
              <mxPoint x="-30" y="200" />
            </Array>
          </mxGeometry>
        </mxCell>
        <mxCell id="zY0vd3xaoPElQ49HkwTg-63" style="edgeStyle=orthogonalEdgeStyle;rounded=0;orthogonalLoop=1;jettySize=auto;html=1;fontSize=10;fontColor=none;entryX=1;entryY=0.5;entryDx=0;entryDy=0;" edge="1" parent="1" target="zY0vd3xaoPElQ49HkwTg-29">
          <mxGeometry relative="1" as="geometry">
            <mxPoint x="-70" y="230" as="targetPoint" />
            <mxPoint x="-70" y="540" as="sourcePoint" />
            <Array as="points">
              <mxPoint x="-70" y="230" />
            </Array>
          </mxGeometry>
        </mxCell>
        <mxCell id="zY0vd3xaoPElQ49HkwTg-69" value="Volumes" style="text;strokeColor=none;fillColor=none;html=1;fontSize=24;fontStyle=1;verticalAlign=middle;align=center;" vertex="1" parent="1">
          <mxGeometry x="-285" y="120" width="100" height="40" as="geometry" />
        </mxCell>
        <mxCell id="zY0vd3xaoPElQ49HkwTg-70" value="kafka-1-conf" style="rounded=0;whiteSpace=wrap;html=1;fontSize=10;" vertex="1" parent="1">
          <mxGeometry x="170" y="160" width="130" height="20" as="geometry" />
        </mxCell>
        <mxCell id="zY0vd3xaoPElQ49HkwTg-71" value="&lt;span style=&quot;color: rgb(0 , 0 , 0) ; font-family: &amp;#34;helvetica&amp;#34; ; font-size: 10px ; font-style: normal ; font-weight: normal ; letter-spacing: normal ; text-align: center ; text-indent: 0px ; text-transform: none ; word-spacing: 0px ; text-decoration: none ; display: inline ; float: none&quot;&gt;kafka-1-logs&lt;/span&gt;" style="rounded=0;whiteSpace=wrap;html=1;fontSize=10;labelBackgroundColor=none;" vertex="1" parent="1">
          <mxGeometry x="170" y="190" width="130" height="20" as="geometry" />
        </mxCell>
        <mxCell id="zY0vd3xaoPElQ49HkwTg-72" value="&lt;span style=&quot;color: rgb(0, 0, 0); font-family: helvetica; font-size: 10px; font-style: normal; font-weight: normal; letter-spacing: normal; text-align: center; text-indent: 0px; text-transform: none; word-spacing: 0px; text-decoration: none; display: inline; float: none;&quot;&gt;kafka-2-conf&lt;/span&gt;" style="rounded=0;whiteSpace=wrap;html=1;fontSize=10;labelBackgroundColor=none;" vertex="1" parent="1">
          <mxGeometry x="170" y="220" width="130" height="20" as="geometry" />
        </mxCell>
        <mxCell id="zY0vd3xaoPElQ49HkwTg-73" value="&lt;span style=&quot;color: rgb(0 , 0 , 0) ; font-family: &amp;#34;helvetica&amp;#34; ; font-size: 10px ; font-style: normal ; font-weight: normal ; letter-spacing: normal ; text-align: center ; text-indent: 0px ; text-transform: none ; word-spacing: 0px ; text-decoration: none ; display: inline ; float: none&quot;&gt;kafka-2-logs&lt;/span&gt;" style="rounded=0;whiteSpace=wrap;html=1;fontSize=10;labelBackgroundColor=none;" vertex="1" parent="1">
          <mxGeometry x="170" y="250" width="130" height="20" as="geometry" />
        </mxCell>
        <mxCell id="zY0vd3xaoPElQ49HkwTg-74" value="&lt;span style=&quot;color: rgb(0, 0, 0); font-family: helvetica; font-size: 10px; font-style: normal; font-weight: normal; letter-spacing: normal; text-align: center; text-indent: 0px; text-transform: none; word-spacing: 0px; text-decoration: none; display: inline; float: none;&quot;&gt;kafka-3-conf&lt;/span&gt;" style="rounded=0;whiteSpace=wrap;html=1;fontSize=10;labelBackgroundColor=none;" vertex="1" parent="1">
          <mxGeometry x="170" y="280" width="130" height="20" as="geometry" />
        </mxCell>
        <mxCell id="zY0vd3xaoPElQ49HkwTg-75" value="&lt;span style=&quot;font-family: &amp;#34;helvetica&amp;#34;&quot;&gt;kafka-3-logs&lt;/span&gt;" style="rounded=0;whiteSpace=wrap;html=1;fontSize=10;" vertex="1" parent="1">
          <mxGeometry x="170" y="310" width="130" height="20" as="geometry" />
        </mxCell>
        <mxCell id="zY0vd3xaoPElQ49HkwTg-76" value="Volumes" style="text;strokeColor=none;fillColor=none;html=1;fontSize=24;fontStyle=1;verticalAlign=middle;align=center;" vertex="1" parent="1">
          <mxGeometry x="185" y="120" width="100" height="40" as="geometry" />
        </mxCell>
        <mxCell id="zY0vd3xaoPElQ49HkwTg-77" style="edgeStyle=orthogonalEdgeStyle;rounded=0;orthogonalLoop=1;jettySize=auto;html=1;exitX=1;exitY=0.5;exitDx=0;exitDy=0;fontSize=10;" edge="1" parent="1" source="zY0vd3xaoPElQ49HkwTg-24">
          <mxGeometry relative="1" as="geometry">
            <mxPoint x="300" y="170" as="targetPoint" />
            <mxPoint x="150" y="560" as="sourcePoint" />
            <Array as="points">
              <mxPoint x="390" y="560" />
              <mxPoint x="390" y="170" />
              <mxPoint x="300" y="170" />
            </Array>
          </mxGeometry>
        </mxCell>
        <mxCell id="zY0vd3xaoPElQ49HkwTg-79" style="edgeStyle=orthogonalEdgeStyle;rounded=0;orthogonalLoop=1;jettySize=auto;html=1;fontSize=10;exitX=0.5;exitY=0;exitDx=0;exitDy=0;entryX=1;entryY=0.5;entryDx=0;entryDy=0;" edge="1" parent="1" target="zY0vd3xaoPElQ49HkwTg-72">
          <mxGeometry relative="1" as="geometry">
            <mxPoint x="170" y="240" as="targetPoint" />
            <mxPoint x="220" y="540" as="sourcePoint" />
            <Array as="points">
              <mxPoint x="220" y="530" />
              <mxPoint x="360" y="530" />
              <mxPoint x="360" y="230" />
            </Array>
          </mxGeometry>
        </mxCell>
        <mxCell id="zY0vd3xaoPElQ49HkwTg-81" style="edgeStyle=orthogonalEdgeStyle;rounded=0;orthogonalLoop=1;jettySize=auto;html=1;fontSize=10;entryX=1;entryY=0.5;entryDx=0;entryDy=0;" edge="1" parent="1" target="zY0vd3xaoPElQ49HkwTg-74">
          <mxGeometry relative="1" as="geometry">
            <mxPoint x="150" y="290" as="targetPoint" />
            <mxPoint x="180" y="540" as="sourcePoint" />
            <Array as="points">
              <mxPoint x="170" y="540" />
              <mxPoint x="170" y="500" />
              <mxPoint x="330" y="500" />
              <mxPoint x="330" y="290" />
            </Array>
          </mxGeometry>
        </mxCell>
        <mxCell id="zY0vd3xaoPElQ49HkwTg-86" style="edgeStyle=orthogonalEdgeStyle;rounded=0;orthogonalLoop=1;jettySize=auto;html=1;fontSize=10;fontColor=none;exitX=0.75;exitY=0;exitDx=0;exitDy=0;" edge="1" parent="1" source="zY0vd3xaoPElQ49HkwTg-17">
          <mxGeometry relative="1" as="geometry">
            <mxPoint x="170" y="200" as="targetPoint" />
            <mxPoint x="30" y="530" as="sourcePoint" />
            <Array as="points">
              <mxPoint x="31" y="200" />
            </Array>
          </mxGeometry>
        </mxCell>
        <mxCell id="zY0vd3xaoPElQ49HkwTg-87" style="edgeStyle=orthogonalEdgeStyle;rounded=0;orthogonalLoop=1;jettySize=auto;html=1;fontSize=10;fontColor=none;entryX=0;entryY=0.5;entryDx=0;entryDy=0;" edge="1" parent="1" target="zY0vd3xaoPElQ49HkwTg-70">
          <mxGeometry relative="1" as="geometry">
            <mxPoint x="160" y="200" as="targetPoint" />
            <mxPoint x="19.5" y="540" as="sourcePoint" />
            <Array as="points">
              <mxPoint x="20" y="170" />
            </Array>
          </mxGeometry>
        </mxCell>
        <mxCell id="zY0vd3xaoPElQ49HkwTg-88" style="edgeStyle=orthogonalEdgeStyle;rounded=0;orthogonalLoop=1;jettySize=auto;html=1;fontSize=10;fontColor=none;entryX=0;entryY=0.5;entryDx=0;entryDy=0;exitX=0.25;exitY=0;exitDx=0;exitDy=0;" edge="1" parent="1" source="zY0vd3xaoPElQ49HkwTg-18" target="zY0vd3xaoPElQ49HkwTg-72">
          <mxGeometry relative="1" as="geometry">
            <mxPoint x="180" y="210" as="targetPoint" />
            <mxPoint x="60" y="530" as="sourcePoint" />
            <Array as="points">
              <mxPoint x="60" y="230" />
            </Array>
          </mxGeometry>
        </mxCell>
        <mxCell id="zY0vd3xaoPElQ49HkwTg-90" style="edgeStyle=orthogonalEdgeStyle;rounded=0;orthogonalLoop=1;jettySize=auto;html=1;fontSize=10;fontColor=none;" edge="1" parent="1">
          <mxGeometry relative="1" as="geometry">
            <mxPoint x="170" y="260" as="targetPoint" />
            <mxPoint x="70" y="540" as="sourcePoint" />
            <Array as="points">
              <mxPoint x="70" y="260" />
            </Array>
          </mxGeometry>
        </mxCell>
        <mxCell id="zY0vd3xaoPElQ49HkwTg-91" style="edgeStyle=orthogonalEdgeStyle;rounded=0;orthogonalLoop=1;jettySize=auto;html=1;fontSize=10;fontColor=none;entryX=0;entryY=0.5;entryDx=0;entryDy=0;exitX=0;exitY=0;exitDx=0;exitDy=0;" edge="1" parent="1" source="zY0vd3xaoPElQ49HkwTg-19">
          <mxGeometry relative="1" as="geometry">
            <mxPoint x="170" y="290" as="targetPoint" />
            <mxPoint x="105" y="530" as="sourcePoint" />
            <Array as="points">
              <mxPoint x="110" y="540" />
              <mxPoint x="110" y="290" />
            </Array>
          </mxGeometry>
        </mxCell>
        <mxCell id="zY0vd3xaoPElQ49HkwTg-92" style="edgeStyle=orthogonalEdgeStyle;rounded=0;orthogonalLoop=1;jettySize=auto;html=1;fontSize=10;fontColor=none;entryX=0;entryY=0.5;entryDx=0;entryDy=0;" edge="1" parent="1">
          <mxGeometry relative="1" as="geometry">
            <mxPoint x="170" y="320" as="targetPoint" />
            <mxPoint x="120" y="540" as="sourcePoint" />
            <Array as="points">
              <mxPoint x="120" y="320" />
            </Array>
          </mxGeometry>
        </mxCell>
      </root>
    </mxGraphModel>
  </diagram>
</mxfile>
